<svg width="462" height="208" viewBox="0 0 462 208" fill="none" xmlns="http://www.w3.org/2000/svg" data-v-52d28052=""><path d="M145.167 155.941L107.409 24.3878H115.148C115.852 24.3878 116.321 24.1533 116.79 23.6843C117.259 23.2153 117.493 22.7463 117.493 22.0428V9.14543C117.493 8.91094 117.493 8.91094 117.493 8.67644V8.44194C117.493 8.20744 117.259 7.97294 117.259 7.73844C117.259 7.73844 117.259 7.73844 117.259 7.50395C117.259 7.26945 117.024 7.26945 117.024 7.03495C117.024 7.03495 116.79 7.03495 116.79 6.80045L116.555 6.56595H116.321C116.086 6.56595 116.086 6.56595 115.852 6.56595L52.532 0C52.2975 0 51.8284 0 51.5939 0L29.0802 7.73844C28.1421 7.97294 27.4386 9.14543 27.4386 10.0834L0 137.885C0 138.12 0 138.354 0 138.354V164.618C0 165.556 0.469036 166.259 1.17259 166.728L71.997 207.766C71.997 207.766 72.2315 207.766 72.2315 208H72.466C72.7005 208 72.935 208 73.1695 208C73.4041 208 73.6386 208 73.8731 208L143.525 184.785C144.463 184.55 145.167 183.612 145.167 182.44V156.645C145.401 156.41 145.401 156.176 145.167 155.941ZM140.711 178.219L106.002 159.928V36.1127L140.711 156.879V178.219ZM100.608 160.631L75.7492 198.386L76.6873 168.37L100.608 44.3202V160.631ZM103.891 164.383C103.891 164.383 104.126 164.383 103.891 164.383L137.193 181.971L79.9706 200.965L103.891 164.383ZM105.768 19.6979V19.2289V18.9944L112.803 13.8354V19.6979H105.768ZM52.532 4.68997L108.816 10.7869L102.719 15.2424L40.5716 8.91094L52.532 4.68997ZM4.69036 138.589L31.6599 12.6629L100.608 19.9324L100.374 21.8083V22.0428L72.2315 167.666C72.2315 167.901 72.2315 167.901 72.2315 168.135L71.0589 201.669L4.69036 163.211V138.589Z" fill="black" data-v-52d28052=""></path> <path d="M197.23 135.54C193.008 135.54 189.96 134.368 187.849 132.492C185.738 130.616 184.566 127.333 184.566 123.346V102.476H178.468V93.096H181.517C183.159 93.096 184.331 92.627 184.8 91.9235C185.504 91.22 185.738 90.0475 185.738 88.6405V81.6056H196.526V93.096H204.969V102.476H196.526V126.395H204.265V135.775H197.23V135.54Z" fill="black" data-v-52d28052=""></path> <path d="M244.837 135.54C242.726 135.54 240.85 134.837 239.443 133.43C238.036 132.023 237.098 130.381 236.629 128.036H236.16C235.456 130.85 234.049 132.961 231.938 134.368C229.828 135.775 227.014 136.478 223.73 136.478C219.509 136.478 216.226 135.306 213.881 133.195C211.535 130.85 210.363 128.036 210.363 124.284C210.363 119.829 212.004 116.546 215.288 114.201C218.571 112.09 223.027 110.918 228.655 110.918H235.456V108.338C235.456 106.228 234.987 104.586 233.815 103.414C232.642 102.241 231 101.538 228.421 101.538C226.075 101.538 224.199 102.007 222.792 103.179C221.385 104.117 220.213 105.29 219.274 106.697L212.239 100.365C213.881 97.7859 216.226 95.9099 218.805 94.2684C221.385 92.8615 224.903 92.158 229.359 92.158C235.456 92.158 239.912 93.565 242.961 96.1444C246.009 98.7239 247.417 102.71 247.417 107.635V126.395H251.403V135.775H244.837V135.54ZM228.186 128.271C230.297 128.271 231.938 127.802 233.346 127.098C234.753 126.395 235.456 124.753 235.456 122.877V117.953H229.828C225.137 117.953 222.792 119.594 222.792 122.643V123.815C222.792 125.457 223.261 126.395 224.199 127.333C225.137 128.271 226.545 128.271 228.186 128.271Z" fill="black" data-v-52d28052=""></path> <path d="M259.611 75.5085H271.572V110.918H272.041L277.2 102.945L285.643 92.8614H299.01L284.705 109.276L300.417 135.54H286.112L276.496 117.484L271.102 123.581V135.54H259.142V75.5085H259.611Z" fill="black" data-v-52d28052=""></path> <path d="M321.993 136.478C318.71 136.478 315.896 136.009 313.316 134.837C310.736 133.899 308.626 132.257 306.749 130.381C304.873 128.505 303.701 126.16 302.763 123.346C301.825 120.532 301.355 117.484 301.355 114.201C301.355 110.918 301.825 107.869 302.763 105.055C303.701 102.241 304.873 99.8964 306.515 98.0204C308.156 96.1444 310.267 94.5029 312.847 93.565C315.427 92.3925 318.241 91.9235 321.289 91.9235C324.807 91.9235 327.856 92.627 330.436 93.7994C333.015 94.9719 334.892 96.6134 336.533 98.4894C338.175 100.6 339.347 102.71 340.051 105.524C340.754 108.104 341.224 110.918 341.224 113.732V117.249H313.785V117.953C313.785 120.767 314.488 122.877 316.13 124.519C317.772 126.16 320.117 126.864 323.166 126.864C325.745 126.864 327.621 126.395 329.263 125.457C330.905 124.519 332.312 123.346 333.719 121.939L339.816 129.443C337.94 131.554 335.361 133.43 332.312 134.602C329.263 135.775 325.98 136.478 321.993 136.478ZM321.759 100.834C319.413 100.834 317.303 101.538 316.13 103.179C314.723 104.821 314.019 106.931 314.019 109.511V110.214H329.029V109.511C329.029 106.931 328.56 104.821 327.387 103.179C325.98 101.538 324.104 100.834 321.759 100.834Z" fill="black" data-v-52d28052=""></path> <path d="M374.994 88.406C372.649 88.406 370.773 87.937 369.6 86.7645C368.428 85.592 367.958 84.185 367.958 82.5435V80.6675C367.958 79.026 368.428 77.619 369.6 76.4465C370.773 75.274 372.414 74.8051 374.994 74.8051C377.339 74.8051 379.215 75.274 380.388 76.4465C381.561 77.619 382.03 79.026 382.03 80.6675V82.5435C382.03 84.185 381.561 85.592 380.388 86.7645C379.215 87.937 377.339 88.406 374.994 88.406ZM368.897 92.8614H380.857V135.54H368.897V92.8614Z" fill="black" data-v-52d28052=""></path> <path d="M407.123 135.54C402.902 135.54 399.853 134.368 397.743 132.492C395.632 130.616 394.459 127.333 394.459 123.346V102.476H388.362V93.096H391.411C393.052 93.096 394.225 92.627 394.694 91.9235C395.397 91.22 395.632 90.0475 395.632 88.6405V81.6056H406.42V93.096H414.862V102.476H406.42V126.395H414.159V135.775H407.123V135.54Z" fill="black" data-v-52d28052=""></path> <path d="M421.663 151.017V140.934H462V151.017H421.663Z" fill="black" data-v-52d28052=""></path></svg>